<svg width="74" height="29" viewBox="0 0 74 29" fill="none" xmlns="http://www.w3.org/2000/svg">
<path d="M13.942 5.77344C12.1988 5.77344 10.7926 6.82812 9.88435 6.82812C8.93221 6.82812 7.65779 5.83203 6.149 5.83203C3.27791 5.83203 0.362869 8.21973 0.362869 12.6875C0.362869 15.4854 1.44685 18.4297 2.77986 20.3486C3.90779 21.9453 4.91853 23.2637 6.35408 23.2637C7.77498 23.2637 8.40486 22.3262 10.1773 22.3262C11.9644 22.3262 12.3746 23.2344 13.942 23.2344C15.5094 23.2344 16.5494 21.8135 17.5308 20.4072C18.6148 18.7812 19.0836 17.1992 19.0982 17.126C19.0103 17.0967 16.022 15.8809 16.022 12.4531C16.022 9.49414 18.3658 8.17578 18.4976 8.07324C16.9595 5.83203 14.6012 5.77344 13.942 5.77344ZM13.1363 3.88379C13.8394 3.01953 14.3375 1.84766 14.3375 0.661133C14.3375 0.5 14.3228 0.338867 14.2935 0.207031C13.151 0.250977 11.7447 0.96875 10.9097 1.9502C10.2652 2.69727 9.64998 3.88379 9.64998 5.07031C9.64998 5.24609 9.67928 5.43652 9.69392 5.49512C9.76717 5.50977 9.88435 5.52441 10.0015 5.52441C11.0416 5.52441 12.3599 4.82129 13.1363 3.88379ZM31.2095 3.97607V23H34.6108V16.7642H38.7373C42.5869 16.7642 45.2764 14.1802 45.2764 10.4097C45.2764 6.57324 42.6792 3.97607 38.8823 3.97607H31.2095ZM34.6108 6.82373H37.9858C40.438 6.82373 41.8223 8.07617 41.8223 10.4097C41.8223 12.6772 40.3984 13.9429 37.9727 13.9429H34.6108V6.82373ZM51.8711 20.6665C50.4209 20.6665 49.3794 19.9414 49.3794 18.7285C49.3794 17.5552 50.2363 16.896 52.0688 16.7773L55.3252 16.5664V17.7134C55.3252 19.3877 53.8486 20.6665 51.8711 20.6665ZM50.9087 23.2373C52.7939 23.2373 54.3759 22.4199 55.1801 21.0225H55.4043V23H58.5551V13.1519C58.5551 10.0933 56.4721 8.28711 52.7675 8.28711C49.3398 8.28711 46.9536 9.90869 46.6899 12.4531H49.7749C50.0781 11.4775 51.1064 10.9502 52.6093 10.9502C54.3759 10.9502 55.3252 11.7412 55.3252 13.1519V14.3647L51.6074 14.5889C48.1006 14.7998 46.1362 16.3027 46.1362 18.9131C46.1362 21.5498 48.1269 23.2373 50.9087 23.2373ZM62.4076 28.2339C65.6376 28.2339 67.1801 27.0474 68.4062 23.4614L73.6137 8.57715H70.1596L66.7978 19.8359H66.5737L63.1987 8.57715H59.6127L64.7675 23.0659L64.5961 23.6987C64.1742 25.0303 63.3964 25.5576 62.0121 25.5576C61.788 25.5576 61.3002 25.5444 61.1157 25.5049V28.1812C61.3266 28.2207 62.2099 28.2339 62.4076 28.2339Z" fill="white"/>
</svg>
