<svg width="175" height="56" viewBox="0 0 175 56" fill="none" xmlns="http://www.w3.org/2000/svg">
<rect width="175" height="56" fill="#82607D"/>
<path d="M85.3628 27.6447V36.7745H82.4463V14.2281H90.1814C91.1047 14.2089 92.0227 14.3715 92.8824 14.7066C93.742 15.0416 94.5264 15.5423 95.1902 16.18C95.8607 16.7789 96.3943 17.5134 96.7552 18.3341C97.1161 19.1548 97.2959 20.0427 97.2825 20.9382C97.3017 21.8385 97.1246 22.7322 96.7635 23.5582C96.4024 24.3841 95.8657 25.1227 95.1902 25.7235C93.8376 27.0043 92.168 27.6441 90.1814 27.6429H85.3628V27.6447ZM85.3628 17.0039V24.8743H90.2539C90.7901 24.8901 91.3237 24.7946 91.8206 24.5939C92.3175 24.3931 92.7667 24.0916 93.1396 23.7086C93.5105 23.3505 93.8053 22.9222 94.0066 22.449C94.208 21.9757 94.3117 21.4672 94.3117 20.9535C94.3117 20.4398 94.208 19.9313 94.0066 19.458C93.8053 18.9848 93.5105 18.5565 93.1396 18.1984C92.7714 17.8073 92.3237 17.4984 91.8262 17.2922C91.3287 17.0859 90.7928 16.987 90.2539 17.0021H85.3628V17.0039Z" fill="white"/>
<path d="M104.003 20.8438C106.158 20.8438 107.86 21.4158 109.107 22.56C110.355 23.7041 110.978 25.2728 110.977 27.2661V36.7736H108.187V34.6328H108.06C106.853 36.3958 105.247 37.2773 103.242 37.2773C101.531 37.2773 100.099 36.7736 98.9467 35.7662C98.3938 35.3038 97.9518 34.7247 97.6528 34.0712C97.3539 33.4176 97.2055 32.706 97.2186 31.9883C97.2186 30.392 97.826 29.1226 99.0409 28.1799C100.256 27.2373 101.878 26.7647 103.907 26.7623C105.638 26.7623 107.065 27.0772 108.185 27.7068V27.0448C108.189 26.5555 108.082 26.0716 107.874 25.6282C107.666 25.1848 107.36 24.793 106.981 24.4813C106.209 23.7902 105.204 23.4132 104.166 23.4253C102.537 23.4253 101.247 24.1077 100.298 25.4725L97.7294 23.866C99.1424 21.8512 101.233 20.8438 104.003 20.8438ZM100.229 32.0513C100.227 32.4199 100.314 32.7836 100.482 33.1122C100.651 33.4408 100.896 33.7247 101.197 33.9402C101.842 34.4441 102.642 34.711 103.463 34.6958C104.694 34.6937 105.873 34.2073 106.743 33.3429C107.71 32.4399 108.193 31.3803 108.193 30.1642C107.283 29.4446 106.015 29.0848 104.388 29.0848C103.204 29.0848 102.216 29.3684 101.425 29.9357C100.626 30.5114 100.229 31.2112 100.229 32.0513Z" fill="white"/>
<path d="M126.991 21.3477L117.253 43.5738H114.242L117.856 35.7969L111.452 21.3477H114.622L119.251 32.4293H119.314L123.816 21.3477H126.991Z" fill="white"/>
<path d="M73.5774 25.6767C73.5785 24.794 73.5034 23.9129 73.3528 23.043H61.0527V28.0315H68.0977C67.9535 28.8282 67.6484 29.5877 67.2007 30.2642C66.753 30.9407 66.172 31.5201 65.4927 31.9676V35.2058H69.6972C72.159 32.9517 73.5774 29.6182 73.5774 25.6767Z" fill="#4285F4"/>
<path d="M61.0528 38.3349C64.5725 38.3349 67.5362 37.1872 69.6973 35.2083L65.4928 31.9702C64.3226 32.7581 62.8154 33.2078 61.0528 33.2078C57.6508 33.2078 54.7633 30.9304 53.7307 27.8613H49.3994V31.1984C50.485 33.3436 52.1496 35.147 54.2074 36.4072C56.2652 37.6674 58.6352 38.3348 61.0528 38.3349Z" fill="#34A853"/>
<path d="M53.7299 27.8595C53.184 26.2513 53.184 24.5097 53.7299 22.9015V19.5645H49.3986C48.4854 21.3691 48.0098 23.3608 48.0098 25.3805C48.0098 27.4002 48.4854 29.3919 49.3986 31.1966L53.7299 27.8595Z" fill="#FBBC04"/>
<path d="M61.0528 17.5556C62.9128 17.5255 64.7101 18.2234 66.0562 19.4985L69.7788 15.8016C67.4183 13.5998 64.2911 12.391 61.0528 12.4286C58.6352 12.4287 56.2652 13.0961 54.2074 14.3563C52.1496 15.6165 50.485 17.4198 49.3994 19.5651L53.7307 22.9022C54.7633 19.8331 57.6508 17.5556 61.0528 17.5556Z" fill="#EA4335"/>
</svg>
