<svg width="79" height="32" viewBox="0 0 79 32" fill="none" xmlns="http://www.w3.org/2000/svg">
<path d="M37.3628 15.6447V24.7745H34.4463V2.22808H42.1814C43.1047 2.20892 44.0227 2.37154 44.8824 2.70655C45.742 3.04156 46.5264 3.54233 47.1902 4.17995C47.8607 4.77886 48.3943 5.51336 48.7552 6.33409C49.1161 7.15481 49.2959 8.04275 49.2825 8.93821C49.3017 9.83846 49.1246 10.7322 48.7635 11.5581C48.4024 12.3841 47.8657 13.1227 47.1902 13.7235C45.8376 15.0043 44.168 15.6441 42.1814 15.6429H37.3628V15.6447ZM37.3628 5.00388V12.8743H42.2539C42.7901 12.8901 43.3237 12.7946 43.8206 12.5939C44.3175 12.3931 44.7667 12.0916 45.1396 11.7086C45.5105 11.3505 45.8053 10.9222 46.0066 10.449C46.208 9.97573 46.3117 9.46723 46.3117 8.9535C46.3117 8.43978 46.208 7.93127 46.0066 7.45805C45.8053 6.98482 45.5105 6.5565 45.1396 6.19839C44.7714 5.80731 44.3237 5.49841 43.8262 5.29216C43.3287 5.08592 42.7928 4.98704 42.2539 5.00208H37.3628V5.00388Z" fill="white"/>
<path d="M56.0026 8.84375C58.1583 8.84375 59.8599 9.41582 61.1074 10.56C62.355 11.7041 62.9781 13.2728 62.9769 15.2661V24.7736H60.1872V22.6328H60.0604C58.8527 24.3958 57.2465 25.2773 55.2418 25.2773C53.5305 25.2773 52.0989 24.7736 50.9467 23.7662C50.3938 23.3038 49.9518 22.7247 49.6528 22.0712C49.3539 21.4176 49.2055 20.706 49.2186 19.9883C49.2186 18.392 49.826 17.1226 51.0409 16.1799C52.2558 15.2373 53.8777 14.7647 55.9066 14.7623C57.6384 14.7623 59.0647 15.0772 60.1854 15.7068V15.0448C60.1887 14.5555 60.0823 14.0716 59.8739 13.6282C59.6656 13.1848 59.3605 12.793 58.9807 12.4813C58.2095 11.7902 57.2044 11.4132 56.1657 11.4253C54.5365 11.4253 53.2473 12.1077 52.2981 13.4725L49.7294 11.866C51.1424 9.85117 53.2335 8.84375 56.0026 8.84375ZM52.2293 20.0513C52.2273 20.4199 52.3141 20.7836 52.4824 21.1122C52.6506 21.4408 52.8955 21.7247 53.1966 21.9402C53.8417 22.4441 54.6423 22.711 55.4628 22.6958C56.6935 22.6937 57.8733 22.2073 58.7434 21.3429C59.7096 20.4399 60.1926 19.3803 60.1926 18.1642C59.2833 17.4446 58.0152 17.0848 56.3885 17.0848C55.2038 17.0848 54.2159 17.3684 53.4249 17.9357C52.626 18.5114 52.2293 19.2112 52.2293 20.0513V20.0513Z" fill="white"/>
<path d="M78.9912 9.34766L69.2526 31.5738H66.2419L69.8558 23.7969L63.4521 9.34766H66.6223L71.2507 20.4293H71.3141L75.8156 9.34766H78.9912Z" fill="white"/>
<path d="M25.5774 13.6767C25.5785 12.794 25.5034 11.9129 25.3528 11.043H13.0527V16.0315H20.0977C19.9535 16.8282 19.6484 17.5877 19.2007 18.2642C18.753 18.9407 18.172 19.5201 17.4927 19.9676V23.2058H21.6972C24.159 20.9517 25.5774 17.6182 25.5774 13.6767Z" fill="#4285F4"/>
<path d="M13.0528 26.3349C16.5725 26.3349 19.5362 25.1872 21.6973 23.2083L17.4928 19.9702C16.3226 20.7581 14.8154 21.2078 13.0528 21.2078C9.6508 21.2078 6.76327 18.9304 5.73071 15.8613H1.39941V19.1984C2.48499 21.3436 4.14959 23.147 6.20739 24.4072C8.26519 25.6674 10.6352 26.3348 13.0528 26.3349V26.3349Z" fill="#34A853"/>
<path d="M5.72989 15.8595C5.18401 14.2513 5.18401 12.5097 5.72989 10.9015V7.56445H1.39859C0.485371 9.36909 0.00976562 11.3608 0.00976562 13.3805C0.00976562 15.4002 0.485371 17.3919 1.39859 19.1966L5.72989 15.8595Z" fill="#FBBC04"/>
<path d="M13.0528 5.55563C14.9128 5.52545 16.7101 6.22336 18.0562 7.49851L21.7788 3.80164C19.4183 1.59985 16.2911 0.391024 13.0528 0.428584C10.6352 0.428694 8.26519 1.0961 6.20739 2.35629C4.14959 3.61647 2.48499 5.41985 1.39941 7.56507L5.73071 10.9022C6.76327 7.83312 9.6508 5.55563 13.0528 5.55563Z" fill="#EA4335"/>
</svg>
