<svg width="20" height="20" viewBox="0 0 20 20" fill="none" xmlns="http://www.w3.org/2000/svg">
<path d="M5.58654 15.3491C5.32843 15.6082 4.90902 15.6086 4.65041 15.35C4.3918 15.0914 4.3922 14.672 4.65132 14.4139L14.693 4.41113L15.5893 5.30742L5.58654 15.3491Z" fill="black"/>
<path d="M15.8336 12.1072C15.8336 12.4898 15.5236 12.7998 15.1411 12.7998C14.7586 12.7998 14.4485 12.4898 14.4485 12.1072V6.75971C14.4485 6.09254 13.9076 5.55169 13.2404 5.55169H7.89291C7.5104 5.55169 7.20032 5.2416 7.20032 4.8591C7.20032 4.47659 7.5104 4.1665 7.89291 4.1665H14.3948C15.1894 4.1665 15.8336 4.81072 15.8336 5.60539V12.1072Z" fill="black"/>
</svg>
