<svg width="32" height="27" viewBox="0 0 32 27" fill="none" xmlns="http://www.w3.org/2000/svg">
<path fill-rule="evenodd" clip-rule="evenodd" d="M3.48521 12.0526C11.2371 8.67521 16.4062 6.44865 18.9926 5.37289C26.3772 2.30136 27.9117 1.76781 28.9118 1.75019C29.1318 1.74631 29.6236 1.80083 29.9422 2.05935C30.2112 2.27763 30.2853 2.57251 30.3207 2.77946C30.3561 2.98642 30.4002 3.45788 30.3651 3.82627C29.965 8.03095 28.2334 18.2346 27.3525 22.9439C26.9797 24.9366 26.2458 25.6047 25.5352 25.6701C23.991 25.8122 22.8184 24.6496 21.3228 23.6692C18.9824 22.1351 17.6603 21.1801 15.3886 19.683C12.7632 17.953 14.4651 17.0021 15.9613 15.4481C16.3529 15.0414 23.1566 8.85283 23.2883 8.29143C23.3048 8.22122 23.3201 7.9595 23.1646 7.8213C23.0091 7.6831 22.7796 7.73036 22.614 7.76795C22.3793 7.82122 18.6405 10.2924 11.3977 15.1815C10.3365 15.9102 9.37526 16.2653 8.51403 16.2467C7.56459 16.2262 5.73824 15.7098 4.38054 15.2685C2.71527 14.7272 1.39175 14.441 1.507 13.5217C1.56702 13.0428 2.22643 12.5531 3.48521 12.0526Z" stroke="black" stroke-width="2" stroke-linecap="round" stroke-linejoin="round"/>
</svg>
