<svg width="19" height="17" viewBox="0 0 19 17" fill="none" xmlns="http://www.w3.org/2000/svg">
<path fill-rule="evenodd" clip-rule="evenodd" d="M2.19113 7.43154C6.84224 5.40513 9.94371 4.06919 11.4955 3.42373C15.9263 1.58082 16.847 1.26068 17.4471 1.25011C17.5791 1.24779 17.8742 1.2805 18.0653 1.43561C18.2267 1.56658 18.2712 1.7435 18.2924 1.86768C18.3137 1.99185 18.3401 2.27473 18.3191 2.49576C18.079 5.01857 17.04 11.1408 16.5115 13.9663C16.2878 15.162 15.8475 15.5628 15.4211 15.6021C14.4946 15.6873 13.7911 14.9898 12.8937 14.4015C11.4895 13.481 10.6962 12.908 9.33313 12.0098C7.75791 10.9718 8.77906 10.4012 9.67678 9.46884C9.91172 9.22482 13.994 5.5117 14.073 5.17486C14.0829 5.13273 14.092 4.9757 13.9988 4.89278C13.9055 4.80986 13.7678 4.83822 13.6684 4.86077C13.5276 4.89273 11.2843 6.37544 6.93864 9.3089C6.3019 9.74613 5.72516 9.95916 5.20842 9.948C4.63875 9.93569 3.54295 9.6259 2.72833 9.3611C1.72916 9.03632 0.935048 8.8646 1.0042 8.31301C1.04021 8.02571 1.43586 7.73188 2.19113 7.43154Z" stroke="#77C5D5" stroke-linecap="round" stroke-linejoin="round"/>
</svg>
