<svg width="97" height="64" viewBox="0 0 97 64" fill="none" xmlns="http://www.w3.org/2000/svg">
<mask id="path-1-outside-1_3316_9985" maskUnits="userSpaceOnUse" x="0.00439453" y="-0.391357" width="97" height="64" fill="black">
<rect fill="white" x="0.00439453" y="-0.391357" width="97" height="64"/>
<path d="M95.9495 27.1869L84.3638 1.45375C84.2873 1.28246 84.1779 1.12792 84.0416 0.998986C83.9054 0.870055 83.7451 0.769265 83.5699 0.702384C83.3946 0.635504 83.2079 0.603847 83.0204 0.60923C82.8329 0.614612 82.6483 0.656927 82.4772 0.733751L71.2722 5.77376C71.1008 5.85048 70.9462 5.96031 70.8173 6.09694C70.6885 6.23356 70.5879 6.39429 70.5213 6.5699C70.4547 6.74551 70.4235 6.93254 70.4294 7.12026C70.4353 7.30797 70.4782 7.49268 70.5557 7.66376L70.9018 8.44261C67.8284 9.40989 64.5687 9.6306 61.393 9.08645C59.2649 8.73167 57.0929 8.73167 54.9649 9.08645C53.2596 9.3644 51.5979 9.86361 50.0218 10.5715C49.3295 10.9176 48.6095 11.2638 47.8791 11.7138L41.7729 14.708C40.8243 14.5195 39.8627 14.4037 38.8964 14.3618C35.6388 14.2651 32.4533 13.3802 29.6125 11.783L30.0798 11.1461C30.3008 10.8384 30.3906 10.4557 30.3296 10.0818C30.2686 9.708 30.0618 9.37366 29.7544 9.15222L19.761 1.95914C19.4528 1.73799 19.0695 1.64805 18.6951 1.70905C18.3207 1.77004 17.9857 1.97699 17.7637 2.28452L1.27286 25.1896C1.0519 25.4972 0.962059 25.88 1.02307 26.2538C1.08407 26.6276 1.29094 26.962 1.59825 27.1834L11.5744 34.373C11.7264 34.4831 11.8986 34.562 12.0811 34.6054C12.2636 34.6488 12.4529 34.6557 12.6381 34.6258C12.8234 34.5959 13.0009 34.5298 13.1605 34.4311C13.3201 34.3325 13.4587 34.2034 13.5683 34.0511L14.046 33.3865C16.4538 35.5775 18.2999 38.3152 19.4287 41.3688C19.5221 41.618 19.626 41.8638 19.7333 42.1096L18.1617 44.2904C17.6617 44.9751 17.3511 45.7796 17.2612 46.6227C17.1714 47.4658 17.3054 48.3177 17.6497 49.0924C17.9941 49.8672 18.5367 50.5375 19.2228 51.0357C19.9089 51.5339 20.7142 51.8423 21.5575 51.93C21.5593 52.177 21.5802 52.4235 21.6198 52.6673C21.8038 53.8033 22.3842 54.8375 23.2579 55.5864C24.1317 56.3354 25.2425 56.7507 26.3933 56.7588C26.5274 56.7588 26.6614 56.7519 26.7948 56.7381C27.0603 57.7822 27.6642 58.7089 28.5122 59.3734C29.3602 60.0379 30.4045 60.4027 31.4818 60.4108C31.992 60.408 32.4988 60.3263 32.9841 60.1685C33.3731 61.0063 33.9923 61.7164 34.7694 62.2158C35.5465 62.7153 36.4495 62.9837 37.3733 62.9896C37.6426 62.9895 37.9114 62.9651 38.1764 62.9169C38.8077 62.8214 39.4132 62.5996 39.9568 62.2648C40.5004 61.9299 40.9709 61.4889 41.3402 60.9681L42.2991 59.6388L46.941 62.3077C47.7441 62.7602 48.65 62.9986 49.5718 63C50.2934 62.9971 51.0068 62.8467 51.6682 62.558C52.3295 62.2693 52.9248 61.8484 53.4176 61.3211C53.9637 60.7019 54.3489 59.9577 54.5391 59.1542C55.4984 59.4585 56.5157 59.5332 57.5091 59.3723C58.32 59.2418 59.0971 58.9523 59.7957 58.5205C60.4944 58.0886 61.1007 57.5228 61.5799 56.8558C62.2155 55.9652 62.6102 54.9254 62.7256 53.8373C62.7782 53.3593 62.77 52.8767 62.7014 52.4007C63.5579 52.3649 64.3972 52.1491 65.1648 51.7674C65.9324 51.3857 66.611 50.8467 67.1564 50.1854C68.0904 49.0644 68.5991 47.6498 68.593 46.1907C68.9507 46.1908 69.3081 46.1665 69.6626 46.118C70.3194 46.0133 70.9486 45.7784 71.5133 45.4271C72.078 45.0758 72.5668 44.6152 72.951 44.0723C73.6092 43.1441 74.0202 42.0636 74.1453 40.9327C74.1453 40.8461 74.1453 40.7596 74.1453 40.6765C74.4499 40.2646 74.7476 39.8319 75.0314 39.3992C76.7239 36.6623 79.0481 34.3712 81.8091 32.7184L82.1138 33.4107C82.2694 33.7563 82.556 34.0259 82.9104 34.1603C83.2648 34.2947 83.6581 34.2828 84.0038 34.1273L95.2261 29.0907C95.3995 29.0143 95.556 28.9042 95.6865 28.7668C95.817 28.6294 95.9189 28.4673 95.9862 28.2902C96.0536 28.113 96.085 27.9243 96.0787 27.7348C96.0724 27.5454 96.0285 27.3592 95.9495 27.1869ZM19.4044 5.87068L26.1717 10.7411L12.3429 29.9284L11.9967 30.4373L5.20864 25.5669L19.4044 5.87068ZM20.9379 46.2877L21.426 45.6196L23.2017 43.1965C23.3208 43.0321 23.4735 42.895 23.6497 42.7942C23.8258 42.6934 24.0215 42.6313 24.2235 42.612C24.4255 42.5926 24.6294 42.6166 24.8215 42.6821C25.0135 42.7477 25.1895 42.8534 25.3375 42.9923C25.4908 43.1448 25.6083 43.3296 25.6813 43.5331C25.7544 43.7367 25.7812 43.954 25.7598 44.1692C25.7367 44.4104 25.6521 44.6416 25.5141 44.8407L23.2121 48.0357C22.9828 48.3237 22.6517 48.5126 22.2871 48.5634C21.9225 48.6143 21.5523 48.5233 21.2529 48.3092C20.9476 48.0795 20.7439 47.7398 20.6851 47.3624C20.6263 46.9849 20.717 46.5993 20.9379 46.2877ZM25.5798 53.0827C25.2698 52.8632 25.0593 52.5298 24.9944 52.1555C24.9295 51.7812 25.0155 51.3964 25.2337 51.0854L28.2798 46.8554H28.3006L30.2737 44.1277C30.3808 43.9733 30.5178 43.842 30.6765 43.7416C30.8353 43.6411 31.0126 43.5734 31.1979 43.5427C31.3841 43.5081 31.5753 43.512 31.7599 43.5543C31.9445 43.5966 32.1184 43.6763 32.271 43.7884C32.4482 43.9173 32.5934 44.0851 32.6954 44.2789C32.7975 44.4728 32.8536 44.6875 32.8594 44.9065C32.8594 44.9619 32.8594 45.0207 32.8594 45.0796C32.8368 45.2742 32.7731 45.4618 32.6725 45.63C32.6448 45.668 32.6171 45.6992 32.5894 45.7338L27.5598 52.7157C27.5356 52.7504 27.5148 52.785 27.4941 52.8196C27.2661 53.1011 26.9393 53.285 26.5804 53.3339C26.2215 53.3828 25.8575 53.293 25.5625 53.0827H25.5798ZM30.696 56.7346C30.5347 56.6311 30.3966 56.4951 30.2905 56.3354C30.1845 56.1757 30.1127 55.9958 30.0798 55.8069C30.0206 55.4749 30.0846 55.1328 30.2598 54.8446C30.2875 54.81 30.3187 54.7754 30.3464 54.7373L35.376 47.7727C35.4198 47.7112 35.4684 47.6533 35.5214 47.5996C35.5763 47.5497 35.6354 47.5046 35.6979 47.4646C35.729 47.443 35.7613 47.4233 35.7948 47.4057C35.8426 47.3769 35.8924 47.3515 35.9437 47.3296L35.9956 47.3088C36.0799 47.2773 36.1668 47.253 36.2552 47.2361C36.3444 47.2209 36.4348 47.2139 36.5252 47.2154H36.5702C36.764 47.225 36.9538 47.2743 37.1278 47.3601C37.3018 47.446 37.4563 47.5666 37.5818 47.7145C37.7074 47.8624 37.8013 48.0345 37.8577 48.2202C37.9141 48.4058 37.9319 48.601 37.9098 48.7938C37.8836 49.0446 37.7903 49.2838 37.6398 49.4861L35.8606 51.9473C35.7948 52.0269 35.7291 52.1031 35.6668 52.1861L33.4271 55.3015C33.3357 55.4271 33.2514 55.5577 33.1744 55.6927L32.6483 56.4196C32.4247 56.7169 32.0944 56.9159 31.7271 56.9747C31.3597 57.0334 30.9839 56.9474 30.6787 56.7346H30.696ZM37.6571 59.5592C37.3777 59.606 37.0907 59.5691 36.8322 59.4532C36.5737 59.3373 36.3553 59.1475 36.2043 58.9078C36.0534 58.6681 35.9767 58.389 35.9839 58.1058C35.9911 57.8226 36.0819 57.5479 36.2448 57.3161L38.4845 54.2007C38.7067 53.8935 39.0391 53.6839 39.4122 53.6158C39.5013 53.6002 39.5917 53.5933 39.6822 53.595H39.7514C39.8129 53.5985 39.8741 53.6054 39.9348 53.6158L40.0075 53.6331C40.1773 53.6789 40.3377 53.7538 40.4818 53.8546C40.6858 54.0027 40.8473 54.2019 40.95 54.4322C41.0527 54.6625 41.093 54.9157 41.0668 55.1665C41.0387 55.4163 40.9469 55.6547 40.8002 55.8588L39.7029 57.3923L38.5814 58.9535C38.4742 59.1134 38.3353 59.2497 38.1734 59.3539C38.0114 59.4581 37.8298 59.528 37.6398 59.5592H37.6571ZM70.6976 40.59C70.6488 41.1267 70.455 41.64 70.1368 42.075C69.8768 42.4222 69.4944 42.6573 69.0672 42.7327C68.855 42.7691 68.6376 42.7621 68.4282 42.7121C68.2187 42.6622 68.0216 42.5702 67.8487 42.4419L66.1803 41.2442C66.111 41.1711 66.0358 41.1039 65.9553 41.0434L62.2306 38.3642C61.8625 38.1296 61.4186 38.0446 60.9899 38.1267C60.5611 38.2089 60.18 38.4519 59.9247 38.8059C59.6693 39.16 59.559 39.5983 59.6164 40.031C59.6738 40.4638 59.8945 40.8582 60.2333 41.1334L63.9545 43.8092L63.9372 43.8369C64.2569 44.0615 64.5259 44.3508 64.7268 44.6859C64.9277 45.0209 65.0561 45.3945 65.1037 45.7823C65.1542 46.172 65.124 46.5679 65.0151 46.9454C64.9061 47.323 64.7207 47.674 64.4703 47.9769C63.9748 48.5287 63.2918 48.8765 62.5541 48.9527C61.8164 49.0288 61.0768 48.8278 60.4791 48.3888L60.3753 48.3127C60.2968 48.2235 60.2085 48.1433 60.1122 48.0738L55.5118 44.7611C55.1437 44.5265 54.6998 44.4416 54.271 44.5237C53.8423 44.6058 53.4612 44.8488 53.2058 45.2028C52.9505 45.5569 52.8402 45.9952 52.8976 46.4279C52.955 46.8607 53.1757 47.2551 53.5145 47.5304L58.1183 50.8534L58.146 50.8811C58.5418 51.1823 58.8544 51.5793 59.0542 52.0348C59.2541 52.4902 59.3346 52.989 59.2883 53.4842C59.2397 53.9801 59.0606 54.4543 58.7692 54.8585C58.4779 55.2627 58.0847 55.5826 57.6296 55.7855C57.1745 55.9884 56.6738 56.0672 56.1783 56.0138C55.6829 55.9604 55.2105 55.7768 54.8091 55.4815L52.5695 53.8511L48.2114 50.7081C48.0307 50.5612 47.8219 50.4529 47.5978 50.3896C47.3738 50.3263 47.1392 50.3095 46.9083 50.3401C46.6775 50.3707 46.4554 50.4481 46.2556 50.5676C46.0558 50.6871 45.8824 50.8461 45.7462 51.035C45.61 51.2238 45.5138 51.4384 45.4635 51.6658C45.4132 51.8931 45.4099 52.1283 45.4537 52.357C45.4975 52.5856 45.5875 52.803 45.7183 52.9956C45.849 53.1882 46.0177 53.3522 46.2141 53.4773L50.5722 56.6169C50.7557 56.7514 50.909 56.9229 51.0223 57.1202C51.1355 57.3175 51.2063 57.5364 51.2299 57.7627C51.2656 57.9935 51.249 58.2293 51.1813 58.4528C51.1136 58.6763 50.9965 58.8817 50.8387 59.0538C50.5631 59.3404 50.1972 59.5233 49.8026 59.5719C49.4079 59.6204 49.0086 59.5316 48.6718 59.3204L44.1925 56.7415C44.2576 56.5715 44.3097 56.3967 44.3483 56.2188C44.4087 55.9818 44.455 55.7414 44.4868 55.4988C44.5991 54.3768 44.318 53.2506 43.6916 52.3129C43.0652 51.3752 42.1325 50.6843 41.0529 50.3584C41.2125 49.9444 41.3184 49.5117 41.3679 49.0707C41.4497 48.2226 41.3088 47.3678 40.9591 46.5907C40.6094 45.8137 40.0631 45.1413 39.3741 44.64C38.4408 43.9701 37.2999 43.6536 36.1548 43.7469C35.8607 42.5683 35.1346 41.5431 34.1204 40.8744C33.1062 40.2058 31.8779 39.9424 30.6787 40.1365C29.8241 40.2638 29.0207 40.623 28.356 41.175L28.3179 41.2061C28.007 40.7584 27.6204 40.3684 27.1756 40.0534C26.6621 39.6782 26.0789 39.4093 25.4601 39.2625C24.8413 39.1157 24.1994 39.0939 23.5721 39.1984C23.1389 39.2741 22.7175 39.4068 22.319 39.593C20.9377 36.1683 18.7785 33.1119 16.0121 30.6657L27.5737 14.6145C29.9057 15.9943 32.4681 16.9407 35.1371 17.408L33.6764 31.7976C33.6213 32.311 33.6684 32.8302 33.815 33.3252C33.9615 33.8203 34.2047 34.2814 34.5303 34.6821C34.856 35.0827 35.2577 35.4149 35.7124 35.6595C36.1671 35.9041 36.6657 36.0563 37.1795 36.1073C38.6643 36.2695 40.1634 35.9774 41.4787 35.2696C41.9314 35.0324 42.3593 34.7506 42.756 34.4284C43.5355 33.8095 44.1824 33.04 44.6581 32.1658C45.1339 31.2916 45.4288 30.3306 45.5252 29.3399L45.9129 25.5876C47.6286 25.51 49.3075 25.0637 50.8352 24.2792C51.0499 24.1719 51.261 24.0542 51.4687 23.933L69.5068 37.8588C69.628 37.9557 69.7283 38.0284 69.7768 38.0769L69.801 38.1011C69.8253 38.1253 69.8737 38.1496 69.898 38.198L69.9464 38.2465C69.9707 38.2465 69.9707 38.2707 69.9949 38.295L70.0434 38.3434L70.116 38.4161L70.1887 38.513C70.213 38.5373 70.2372 38.5892 70.2614 38.6134C70.3185 38.6973 70.3672 38.7866 70.4068 38.88L70.431 38.9284C70.4587 38.9769 70.4587 39.0011 70.483 39.0496C70.5072 39.098 70.5072 39.1465 70.5314 39.195C70.5557 39.2434 70.5557 39.2953 70.5799 39.3438L70.6283 39.4892C70.662 39.6024 70.6864 39.7182 70.701 39.8353V39.8838C70.7229 39.9387 70.7313 39.9981 70.7253 40.0569V40.2023C70.7383 40.3332 70.7229 40.4655 70.6803 40.59H70.6976ZM80.4107 29.5857C77.4571 31.2958 74.9116 33.6287 72.951 36.4223V36.4015C72.9026 36.3288 72.8299 36.2561 72.7814 36.1834C72.733 36.1107 72.6118 35.9896 72.5114 35.8926L72.2691 35.6469C72.0848 35.4654 71.8894 35.2955 71.6841 35.138L51.6072 19.6511L50.5687 20.4299C48.8515 21.7352 46.7013 22.3368 44.556 22.1122L42.8495 21.9392L42.1572 28.9765C42.038 30.0709 41.4965 31.0756 40.6479 31.7769C39.7927 32.4677 38.6986 32.7913 37.6052 32.6769C37.5376 32.6722 37.4717 32.6538 37.4114 32.623C37.3511 32.5921 37.2977 32.5493 37.2543 32.4973C37.211 32.4452 37.1786 32.3849 37.1592 32.32C37.1398 32.2551 37.1337 32.1869 37.1414 32.1196L38.3598 20.1634L47.1002 15.9022H47.0275L49.4506 14.7011L49.5995 14.6284C50.1978 14.2714 50.8149 13.9467 51.4479 13.6557C52.7471 13.0525 54.1243 12.6342 55.5395 12.413C57.3045 12.1222 59.1052 12.1222 60.8703 12.413C64.6897 13.0793 68.6149 12.7867 72.2934 11.5615L73.8891 15.1061L80.4107 29.5857ZM84.4261 30.1949L74.4672 8.06184L82.0826 4.65568L92.0415 26.7853L84.4261 30.1949Z"/>
</mask>
<path d="M95.9495 27.1869L84.3638 1.45375C84.2873 1.28246 84.1779 1.12792 84.0416 0.998986C83.9054 0.870055 83.7451 0.769265 83.5699 0.702384C83.3946 0.635504 83.2079 0.603847 83.0204 0.60923C82.8329 0.614612 82.6483 0.656927 82.4772 0.733751L71.2722 5.77376C71.1008 5.85048 70.9462 5.96031 70.8173 6.09694C70.6885 6.23356 70.5879 6.39429 70.5213 6.5699C70.4547 6.74551 70.4235 6.93254 70.4294 7.12026C70.4353 7.30797 70.4782 7.49268 70.5557 7.66376L70.9018 8.44261C67.8284 9.40989 64.5687 9.6306 61.393 9.08645C59.2649 8.73167 57.0929 8.73167 54.9649 9.08645C53.2596 9.3644 51.5979 9.86361 50.0218 10.5715C49.3295 10.9176 48.6095 11.2638 47.8791 11.7138L41.7729 14.708C40.8243 14.5195 39.8627 14.4037 38.8964 14.3618C35.6388 14.2651 32.4533 13.3802 29.6125 11.783L30.0798 11.1461C30.3008 10.8384 30.3906 10.4557 30.3296 10.0818C30.2686 9.708 30.0618 9.37366 29.7544 9.15222L19.761 1.95914C19.4528 1.73799 19.0695 1.64805 18.6951 1.70905C18.3207 1.77004 17.9857 1.97699 17.7637 2.28452L1.27286 25.1896C1.0519 25.4972 0.962059 25.88 1.02307 26.2538C1.08407 26.6276 1.29094 26.962 1.59825 27.1834L11.5744 34.373C11.7264 34.4831 11.8986 34.562 12.0811 34.6054C12.2636 34.6488 12.4529 34.6557 12.6381 34.6258C12.8234 34.5959 13.0009 34.5298 13.1605 34.4311C13.3201 34.3325 13.4587 34.2034 13.5683 34.0511L14.046 33.3865C16.4538 35.5775 18.2999 38.3152 19.4287 41.3688C19.5221 41.618 19.626 41.8638 19.7333 42.1096L18.1617 44.2904C17.6617 44.9751 17.3511 45.7796 17.2612 46.6227C17.1714 47.4658 17.3054 48.3177 17.6497 49.0924C17.9941 49.8672 18.5367 50.5375 19.2228 51.0357C19.9089 51.5339 20.7142 51.8423 21.5575 51.93C21.5593 52.177 21.5802 52.4235 21.6198 52.6673C21.8038 53.8033 22.3842 54.8375 23.2579 55.5864C24.1317 56.3354 25.2425 56.7507 26.3933 56.7588C26.5274 56.7588 26.6614 56.7519 26.7948 56.7381C27.0603 57.7822 27.6642 58.7089 28.5122 59.3734C29.3602 60.0379 30.4045 60.4027 31.4818 60.4108C31.992 60.408 32.4988 60.3263 32.9841 60.1685C33.3731 61.0063 33.9923 61.7164 34.7694 62.2158C35.5465 62.7153 36.4495 62.9837 37.3733 62.9896C37.6426 62.9895 37.9114 62.9651 38.1764 62.9169C38.8077 62.8214 39.4132 62.5996 39.9568 62.2648C40.5004 61.9299 40.9709 61.4889 41.3402 60.9681L42.2991 59.6388L46.941 62.3077C47.7441 62.7602 48.65 62.9986 49.5718 63C50.2934 62.9971 51.0068 62.8467 51.6682 62.558C52.3295 62.2693 52.9248 61.8484 53.4176 61.3211C53.9637 60.7019 54.3489 59.9577 54.5391 59.1542C55.4984 59.4585 56.5157 59.5332 57.5091 59.3723C58.32 59.2418 59.0971 58.9523 59.7957 58.5205C60.4944 58.0886 61.1007 57.5228 61.5799 56.8558C62.2155 55.9652 62.6102 54.9254 62.7256 53.8373C62.7782 53.3593 62.77 52.8767 62.7014 52.4007C63.5579 52.3649 64.3972 52.1491 65.1648 51.7674C65.9324 51.3857 66.611 50.8467 67.1564 50.1854C68.0904 49.0644 68.5991 47.6498 68.593 46.1907C68.9507 46.1908 69.3081 46.1665 69.6626 46.118C70.3194 46.0133 70.9486 45.7784 71.5133 45.4271C72.078 45.0758 72.5668 44.6152 72.951 44.0723C73.6092 43.1441 74.0202 42.0636 74.1453 40.9327C74.1453 40.8461 74.1453 40.7596 74.1453 40.6765C74.4499 40.2646 74.7476 39.8319 75.0314 39.3992C76.7239 36.6623 79.0481 34.3712 81.8091 32.7184L82.1138 33.4107C82.2694 33.7563 82.556 34.0259 82.9104 34.1603C83.2648 34.2947 83.6581 34.2828 84.0038 34.1273L95.2261 29.0907C95.3995 29.0143 95.556 28.9042 95.6865 28.7668C95.817 28.6294 95.9189 28.4673 95.9862 28.2902C96.0536 28.113 96.085 27.9243 96.0787 27.7348C96.0724 27.5454 96.0285 27.3592 95.9495 27.1869ZM19.4044 5.87068L26.1717 10.7411L12.3429 29.9284L11.9967 30.4373L5.20864 25.5669L19.4044 5.87068ZM20.9379 46.2877L21.426 45.6196L23.2017 43.1965C23.3208 43.0321 23.4735 42.895 23.6497 42.7942C23.8258 42.6934 24.0215 42.6313 24.2235 42.612C24.4255 42.5926 24.6294 42.6166 24.8215 42.6821C25.0135 42.7477 25.1895 42.8534 25.3375 42.9923C25.4908 43.1448 25.6083 43.3296 25.6813 43.5331C25.7544 43.7367 25.7812 43.954 25.7598 44.1692C25.7367 44.4104 25.6521 44.6416 25.5141 44.8407L23.2121 48.0357C22.9828 48.3237 22.6517 48.5126 22.2871 48.5634C21.9225 48.6143 21.5523 48.5233 21.2529 48.3092C20.9476 48.0795 20.7439 47.7398 20.6851 47.3624C20.6263 46.9849 20.717 46.5993 20.9379 46.2877ZM25.5798 53.0827C25.2698 52.8632 25.0593 52.5298 24.9944 52.1555C24.9295 51.7812 25.0155 51.3964 25.2337 51.0854L28.2798 46.8554H28.3006L30.2737 44.1277C30.3808 43.9733 30.5178 43.842 30.6765 43.7416C30.8353 43.6411 31.0126 43.5734 31.1979 43.5427C31.3841 43.5081 31.5753 43.512 31.7599 43.5543C31.9445 43.5966 32.1184 43.6763 32.271 43.7884C32.4482 43.9173 32.5934 44.0851 32.6954 44.2789C32.7975 44.4728 32.8536 44.6875 32.8594 44.9065C32.8594 44.9619 32.8594 45.0207 32.8594 45.0796C32.8368 45.2742 32.7731 45.4618 32.6725 45.63C32.6448 45.668 32.6171 45.6992 32.5894 45.7338L27.5598 52.7157C27.5356 52.7504 27.5148 52.785 27.4941 52.8196C27.2661 53.1011 26.9393 53.285 26.5804 53.3339C26.2215 53.3828 25.8575 53.293 25.5625 53.0827H25.5798ZM30.696 56.7346C30.5347 56.6311 30.3966 56.4951 30.2905 56.3354C30.1845 56.1757 30.1127 55.9958 30.0798 55.8069C30.0206 55.4749 30.0846 55.1328 30.2598 54.8446C30.2875 54.81 30.3187 54.7754 30.3464 54.7373L35.376 47.7727C35.4198 47.7112 35.4684 47.6533 35.5214 47.5996C35.5763 47.5497 35.6354 47.5046 35.6979 47.4646C35.729 47.443 35.7613 47.4233 35.7948 47.4057C35.8426 47.3769 35.8924 47.3515 35.9437 47.3296L35.9956 47.3088C36.0799 47.2773 36.1668 47.253 36.2552 47.2361C36.3444 47.2209 36.4348 47.2139 36.5252 47.2154H36.5702C36.764 47.225 36.9538 47.2743 37.1278 47.3601C37.3018 47.446 37.4563 47.5666 37.5818 47.7145C37.7074 47.8624 37.8013 48.0345 37.8577 48.2202C37.9141 48.4058 37.9319 48.601 37.9098 48.7938C37.8836 49.0446 37.7903 49.2838 37.6398 49.4861L35.8606 51.9473C35.7948 52.0269 35.7291 52.1031 35.6668 52.1861L33.4271 55.3015C33.3357 55.4271 33.2514 55.5577 33.1744 55.6927L32.6483 56.4196C32.4247 56.7169 32.0944 56.9159 31.7271 56.9747C31.3597 57.0334 30.9839 56.9474 30.6787 56.7346H30.696ZM37.6571 59.5592C37.3777 59.606 37.0907 59.5691 36.8322 59.4532C36.5737 59.3373 36.3553 59.1475 36.2043 58.9078C36.0534 58.6681 35.9767 58.389 35.9839 58.1058C35.9911 57.8226 36.0819 57.5479 36.2448 57.3161L38.4845 54.2007C38.7067 53.8935 39.0391 53.6839 39.4122 53.6158C39.5013 53.6002 39.5917 53.5933 39.6822 53.595H39.7514C39.8129 53.5985 39.8741 53.6054 39.9348 53.6158L40.0075 53.6331C40.1773 53.6789 40.3377 53.7538 40.4818 53.8546C40.6858 54.0027 40.8473 54.2019 40.95 54.4322C41.0527 54.6625 41.093 54.9157 41.0668 55.1665C41.0387 55.4163 40.9469 55.6547 40.8002 55.8588L39.7029 57.3923L38.5814 58.9535C38.4742 59.1134 38.3353 59.2497 38.1734 59.3539C38.0114 59.4581 37.8298 59.528 37.6398 59.5592H37.6571ZM70.6976 40.59C70.6488 41.1267 70.455 41.64 70.1368 42.075C69.8768 42.4222 69.4944 42.6573 69.0672 42.7327C68.855 42.7691 68.6376 42.7621 68.4282 42.7121C68.2187 42.6622 68.0216 42.5702 67.8487 42.4419L66.1803 41.2442C66.111 41.1711 66.0358 41.1039 65.9553 41.0434L62.2306 38.3642C61.8625 38.1296 61.4186 38.0446 60.9899 38.1267C60.5611 38.2089 60.18 38.4519 59.9247 38.8059C59.6693 39.16 59.559 39.5983 59.6164 40.031C59.6738 40.4638 59.8945 40.8582 60.2333 41.1334L63.9545 43.8092L63.9372 43.8369C64.2569 44.0615 64.5259 44.3508 64.7268 44.6859C64.9277 45.0209 65.0561 45.3945 65.1037 45.7823C65.1542 46.172 65.124 46.5679 65.0151 46.9454C64.9061 47.323 64.7207 47.674 64.4703 47.9769C63.9748 48.5287 63.2918 48.8765 62.5541 48.9527C61.8164 49.0288 61.0768 48.8278 60.4791 48.3888L60.3753 48.3127C60.2968 48.2235 60.2085 48.1433 60.1122 48.0738L55.5118 44.7611C55.1437 44.5265 54.6998 44.4416 54.271 44.5237C53.8423 44.6058 53.4612 44.8488 53.2058 45.2028C52.9505 45.5569 52.8402 45.9952 52.8976 46.4279C52.955 46.8607 53.1757 47.2551 53.5145 47.5304L58.1183 50.8534L58.146 50.8811C58.5418 51.1823 58.8544 51.5793 59.0542 52.0348C59.2541 52.4902 59.3346 52.989 59.2883 53.4842C59.2397 53.9801 59.0606 54.4543 58.7692 54.8585C58.4779 55.2627 58.0847 55.5826 57.6296 55.7855C57.1745 55.9884 56.6738 56.0672 56.1783 56.0138C55.6829 55.9604 55.2105 55.7768 54.8091 55.4815L52.5695 53.8511L48.2114 50.7081C48.0307 50.5612 47.8219 50.4529 47.5978 50.3896C47.3738 50.3263 47.1392 50.3095 46.9083 50.3401C46.6775 50.3707 46.4554 50.4481 46.2556 50.5676C46.0558 50.6871 45.8824 50.8461 45.7462 51.035C45.61 51.2238 45.5138 51.4384 45.4635 51.6658C45.4132 51.8931 45.4099 52.1283 45.4537 52.357C45.4975 52.5856 45.5875 52.803 45.7183 52.9956C45.849 53.1882 46.0177 53.3522 46.2141 53.4773L50.5722 56.6169C50.7557 56.7514 50.909 56.9229 51.0223 57.1202C51.1355 57.3175 51.2063 57.5364 51.2299 57.7627C51.2656 57.9935 51.249 58.2293 51.1813 58.4528C51.1136 58.6763 50.9965 58.8817 50.8387 59.0538C50.5631 59.3404 50.1972 59.5233 49.8026 59.5719C49.4079 59.6204 49.0086 59.5316 48.6718 59.3204L44.1925 56.7415C44.2576 56.5715 44.3097 56.3967 44.3483 56.2188C44.4087 55.9818 44.455 55.7414 44.4868 55.4988C44.5991 54.3768 44.318 53.2506 43.6916 52.3129C43.0652 51.3752 42.1325 50.6843 41.0529 50.3584C41.2125 49.9444 41.3184 49.5117 41.3679 49.0707C41.4497 48.2226 41.3088 47.3678 40.9591 46.5907C40.6094 45.8137 40.0631 45.1413 39.3741 44.64C38.4408 43.9701 37.2999 43.6536 36.1548 43.7469C35.8607 42.5683 35.1346 41.5431 34.1204 40.8744C33.1062 40.2058 31.8779 39.9424 30.6787 40.1365C29.8241 40.2638 29.0207 40.623 28.356 41.175L28.3179 41.2061C28.007 40.7584 27.6204 40.3684 27.1756 40.0534C26.6621 39.6782 26.0789 39.4093 25.4601 39.2625C24.8413 39.1157 24.1994 39.0939 23.5721 39.1984C23.1389 39.2741 22.7175 39.4068 22.319 39.593C20.9377 36.1683 18.7785 33.1119 16.0121 30.6657L27.5737 14.6145C29.9057 15.9943 32.4681 16.9407 35.1371 17.408L33.6764 31.7976C33.6213 32.311 33.6684 32.8302 33.815 33.3252C33.9615 33.8203 34.2047 34.2814 34.5303 34.6821C34.856 35.0827 35.2577 35.4149 35.7124 35.6595C36.1671 35.9041 36.6657 36.0563 37.1795 36.1073C38.6643 36.2695 40.1634 35.9774 41.4787 35.2696C41.9314 35.0324 42.3593 34.7506 42.756 34.4284C43.5355 33.8095 44.1824 33.04 44.6581 32.1658C45.1339 31.2916 45.4288 30.3306 45.5252 29.3399L45.9129 25.5876C47.6286 25.51 49.3075 25.0637 50.8352 24.2792C51.0499 24.1719 51.261 24.0542 51.4687 23.933L69.5068 37.8588C69.628 37.9557 69.7283 38.0284 69.7768 38.0769L69.801 38.1011C69.8253 38.1253 69.8737 38.1496 69.898 38.198L69.9464 38.2465C69.9707 38.2465 69.9707 38.2707 69.9949 38.295L70.0434 38.3434L70.116 38.4161L70.1887 38.513C70.213 38.5373 70.2372 38.5892 70.2614 38.6134C70.3185 38.6973 70.3672 38.7866 70.4068 38.88L70.431 38.9284C70.4587 38.9769 70.4587 39.0011 70.483 39.0496C70.5072 39.098 70.5072 39.1465 70.5314 39.195C70.5557 39.2434 70.5557 39.2953 70.5799 39.3438L70.6283 39.4892C70.662 39.6024 70.6864 39.7182 70.701 39.8353V39.8838C70.7229 39.9387 70.7313 39.9981 70.7253 40.0569V40.2023C70.7383 40.3332 70.7229 40.4655 70.6803 40.59H70.6976ZM80.4107 29.5857C77.4571 31.2958 74.9116 33.6287 72.951 36.4223V36.4015C72.9026 36.3288 72.8299 36.2561 72.7814 36.1834C72.733 36.1107 72.6118 35.9896 72.5114 35.8926L72.2691 35.6469C72.0848 35.4654 71.8894 35.2955 71.6841 35.138L51.6072 19.6511L50.5687 20.4299C48.8515 21.7352 46.7013 22.3368 44.556 22.1122L42.8495 21.9392L42.1572 28.9765C42.038 30.0709 41.4965 31.0756 40.6479 31.7769C39.7927 32.4677 38.6986 32.7913 37.6052 32.6769C37.5376 32.6722 37.4717 32.6538 37.4114 32.623C37.3511 32.5921 37.2977 32.5493 37.2543 32.4973C37.211 32.4452 37.1786 32.3849 37.1592 32.32C37.1398 32.2551 37.1337 32.1869 37.1414 32.1196L38.3598 20.1634L47.1002 15.9022H47.0275L49.4506 14.7011L49.5995 14.6284C50.1978 14.2714 50.8149 13.9467 51.4479 13.6557C52.7471 13.0525 54.1243 12.6342 55.5395 12.413C57.3045 12.1222 59.1052 12.1222 60.8703 12.413C64.6897 13.0793 68.6149 12.7867 72.2934 11.5615L73.8891 15.1061L80.4107 29.5857ZM84.4261 30.1949L74.4672 8.06184L82.0826 4.65568L92.0415 26.7853L84.4261 30.1949Z" fill="#77C5D5"/>
<path d="M95.9495 27.1869L84.3638 1.45375C84.2873 1.28246 84.1779 1.12792 84.0416 0.998986C83.9054 0.870055 83.7451 0.769265 83.5699 0.702384C83.3946 0.635504 83.2079 0.603847 83.0204 0.60923C82.8329 0.614612 82.6483 0.656927 82.4772 0.733751L71.2722 5.77376C71.1008 5.85048 70.9462 5.96031 70.8173 6.09694C70.6885 6.23356 70.5879 6.39429 70.5213 6.5699C70.4547 6.74551 70.4235 6.93254 70.4294 7.12026C70.4353 7.30797 70.4782 7.49268 70.5557 7.66376L70.9018 8.44261C67.8284 9.40989 64.5687 9.6306 61.393 9.08645C59.2649 8.73167 57.0929 8.73167 54.9649 9.08645C53.2596 9.3644 51.5979 9.86361 50.0218 10.5715C49.3295 10.9176 48.6095 11.2638 47.8791 11.7138L41.7729 14.708C40.8243 14.5195 39.8627 14.4037 38.8964 14.3618C35.6388 14.2651 32.4533 13.3802 29.6125 11.783L30.0798 11.1461C30.3008 10.8384 30.3906 10.4557 30.3296 10.0818C30.2686 9.708 30.0618 9.37366 29.7544 9.15222L19.761 1.95914C19.4528 1.73799 19.0695 1.64805 18.6951 1.70905C18.3207 1.77004 17.9857 1.97699 17.7637 2.28452L1.27286 25.1896C1.0519 25.4972 0.962059 25.88 1.02307 26.2538C1.08407 26.6276 1.29094 26.962 1.59825 27.1834L11.5744 34.373C11.7264 34.4831 11.8986 34.562 12.0811 34.6054C12.2636 34.6488 12.4529 34.6557 12.6381 34.6258C12.8234 34.5959 13.0009 34.5298 13.1605 34.4311C13.3201 34.3325 13.4587 34.2034 13.5683 34.0511L14.046 33.3865C16.4538 35.5775 18.2999 38.3152 19.4287 41.3688C19.5221 41.618 19.626 41.8638 19.7333 42.1096L18.1617 44.2904C17.6617 44.9751 17.3511 45.7796 17.2612 46.6227C17.1714 47.4658 17.3054 48.3177 17.6497 49.0924C17.9941 49.8672 18.5367 50.5375 19.2228 51.0357C19.9089 51.5339 20.7142 51.8423 21.5575 51.93C21.5593 52.177 21.5802 52.4235 21.6198 52.6673C21.8038 53.8033 22.3842 54.8375 23.2579 55.5864C24.1317 56.3354 25.2425 56.7507 26.3933 56.7588C26.5274 56.7588 26.6614 56.7519 26.7948 56.7381C27.0603 57.7822 27.6642 58.7089 28.5122 59.3734C29.3602 60.0379 30.4045 60.4027 31.4818 60.4108C31.992 60.408 32.4988 60.3263 32.9841 60.1685C33.3731 61.0063 33.9923 61.7164 34.7694 62.2158C35.5465 62.7153 36.4495 62.9837 37.3733 62.9896C37.6426 62.9895 37.9114 62.9651 38.1764 62.9169C38.8077 62.8214 39.4132 62.5996 39.9568 62.2648C40.5004 61.9299 40.9709 61.4889 41.3402 60.9681L42.2991 59.6388L46.941 62.3077C47.7441 62.7602 48.65 62.9986 49.5718 63C50.2934 62.9971 51.0068 62.8467 51.6682 62.558C52.3295 62.2693 52.9248 61.8484 53.4176 61.3211C53.9637 60.7019 54.3489 59.9577 54.5391 59.1542C55.4984 59.4585 56.5157 59.5332 57.5091 59.3723C58.32 59.2418 59.0971 58.9523 59.7957 58.5205C60.4944 58.0886 61.1007 57.5228 61.5799 56.8558C62.2155 55.9652 62.6102 54.9254 62.7256 53.8373C62.7782 53.3593 62.77 52.8767 62.7014 52.4007C63.5579 52.3649 64.3972 52.1491 65.1648 51.7674C65.9324 51.3857 66.611 50.8467 67.1564 50.1854C68.0904 49.0644 68.5991 47.6498 68.593 46.1907C68.9507 46.1908 69.3081 46.1665 69.6626 46.118C70.3194 46.0133 70.9486 45.7784 71.5133 45.4271C72.078 45.0758 72.5668 44.6152 72.951 44.0723C73.6092 43.1441 74.0202 42.0636 74.1453 40.9327C74.1453 40.8461 74.1453 40.7596 74.1453 40.6765C74.4499 40.2646 74.7476 39.8319 75.0314 39.3992C76.7239 36.6623 79.0481 34.3712 81.8091 32.7184L82.1138 33.4107C82.2694 33.7563 82.556 34.0259 82.9104 34.1603C83.2648 34.2947 83.6581 34.2828 84.0038 34.1273L95.2261 29.0907C95.3995 29.0143 95.556 28.9042 95.6865 28.7668C95.817 28.6294 95.9189 28.4673 95.9862 28.2902C96.0536 28.113 96.085 27.9243 96.0787 27.7348C96.0724 27.5454 96.0285 27.3592 95.9495 27.1869ZM19.4044 5.87068L26.1717 10.7411L12.3429 29.9284L11.9967 30.4373L5.20864 25.5669L19.4044 5.87068ZM20.9379 46.2877L21.426 45.6196L23.2017 43.1965C23.3208 43.0321 23.4735 42.895 23.6497 42.7942C23.8258 42.6934 24.0215 42.6313 24.2235 42.612C24.4255 42.5926 24.6294 42.6166 24.8215 42.6821C25.0135 42.7477 25.1895 42.8534 25.3375 42.9923C25.4908 43.1448 25.6083 43.3296 25.6813 43.5331C25.7544 43.7367 25.7812 43.954 25.7598 44.1692C25.7367 44.4104 25.6521 44.6416 25.5141 44.8407L23.2121 48.0357C22.9828 48.3237 22.6517 48.5126 22.2871 48.5634C21.9225 48.6143 21.5523 48.5233 21.2529 48.3092C20.9476 48.0795 20.7439 47.7398 20.6851 47.3624C20.6263 46.9849 20.717 46.5993 20.9379 46.2877ZM25.5798 53.0827C25.2698 52.8632 25.0593 52.5298 24.9944 52.1555C24.9295 51.7812 25.0155 51.3964 25.2337 51.0854L28.2798 46.8554H28.3006L30.2737 44.1277C30.3808 43.9733 30.5178 43.842 30.6765 43.7416C30.8353 43.6411 31.0126 43.5734 31.1979 43.5427C31.3841 43.5081 31.5753 43.512 31.7599 43.5543C31.9445 43.5966 32.1184 43.6763 32.271 43.7884C32.4482 43.9173 32.5934 44.0851 32.6954 44.2789C32.7975 44.4728 32.8536 44.6875 32.8594 44.9065C32.8594 44.9619 32.8594 45.0207 32.8594 45.0796C32.8368 45.2742 32.7731 45.4618 32.6725 45.63C32.6448 45.668 32.6171 45.6992 32.5894 45.7338L27.5598 52.7157C27.5356 52.7504 27.5148 52.785 27.4941 52.8196C27.2661 53.1011 26.9393 53.285 26.5804 53.3339C26.2215 53.3828 25.8575 53.293 25.5625 53.0827H25.5798ZM30.696 56.7346C30.5347 56.6311 30.3966 56.4951 30.2905 56.3354C30.1845 56.1757 30.1127 55.9958 30.0798 55.8069C30.0206 55.4749 30.0846 55.1328 30.2598 54.8446C30.2875 54.81 30.3187 54.7754 30.3464 54.7373L35.376 47.7727C35.4198 47.7112 35.4684 47.6533 35.5214 47.5996C35.5763 47.5497 35.6354 47.5046 35.6979 47.4646C35.729 47.443 35.7613 47.4233 35.7948 47.4057C35.8426 47.3769 35.8924 47.3515 35.9437 47.3296L35.9956 47.3088C36.0799 47.2773 36.1668 47.253 36.2552 47.2361C36.3444 47.2209 36.4348 47.2139 36.5252 47.2154H36.5702C36.764 47.225 36.9538 47.2743 37.1278 47.3601C37.3018 47.446 37.4563 47.5666 37.5818 47.7145C37.7074 47.8624 37.8013 48.0345 37.8577 48.2202C37.9141 48.4058 37.9319 48.601 37.9098 48.7938C37.8836 49.0446 37.7903 49.2838 37.6398 49.4861L35.8606 51.9473C35.7948 52.0269 35.7291 52.1031 35.6668 52.1861L33.4271 55.3015C33.3357 55.4271 33.2514 55.5577 33.1744 55.6927L32.6483 56.4196C32.4247 56.7169 32.0944 56.9159 31.7271 56.9747C31.3597 57.0334 30.9839 56.9474 30.6787 56.7346H30.696ZM37.6571 59.5592C37.3777 59.606 37.0907 59.5691 36.8322 59.4532C36.5737 59.3373 36.3553 59.1475 36.2043 58.9078C36.0534 58.6681 35.9767 58.389 35.9839 58.1058C35.9911 57.8226 36.0819 57.5479 36.2448 57.3161L38.4845 54.2007C38.7067 53.8935 39.0391 53.6839 39.4122 53.6158C39.5013 53.6002 39.5917 53.5933 39.6822 53.595H39.7514C39.8129 53.5985 39.8741 53.6054 39.9348 53.6158L40.0075 53.6331C40.1773 53.6789 40.3377 53.7538 40.4818 53.8546C40.6858 54.0027 40.8473 54.2019 40.95 54.4322C41.0527 54.6625 41.093 54.9157 41.0668 55.1665C41.0387 55.4163 40.9469 55.6547 40.8002 55.8588L39.7029 57.3923L38.5814 58.9535C38.4742 59.1134 38.3353 59.2497 38.1734 59.3539C38.0114 59.4581 37.8298 59.528 37.6398 59.5592H37.6571ZM70.6976 40.59C70.6488 41.1267 70.455 41.64 70.1368 42.075C69.8768 42.4222 69.4944 42.6573 69.0672 42.7327C68.855 42.7691 68.6376 42.7621 68.4282 42.7121C68.2187 42.6622 68.0216 42.5702 67.8487 42.4419L66.1803 41.2442C66.111 41.1711 66.0358 41.1039 65.9553 41.0434L62.2306 38.3642C61.8625 38.1296 61.4186 38.0446 60.9899 38.1267C60.5611 38.2089 60.18 38.4519 59.9247 38.8059C59.6693 39.16 59.559 39.5983 59.6164 40.031C59.6738 40.4638 59.8945 40.8582 60.2333 41.1334L63.9545 43.8092L63.9372 43.8369C64.2569 44.0615 64.5259 44.3508 64.7268 44.6859C64.9277 45.0209 65.0561 45.3945 65.1037 45.7823C65.1542 46.172 65.124 46.5679 65.0151 46.9454C64.9061 47.323 64.7207 47.674 64.4703 47.9769C63.9748 48.5287 63.2918 48.8765 62.5541 48.9527C61.8164 49.0288 61.0768 48.8278 60.4791 48.3888L60.3753 48.3127C60.2968 48.2235 60.2085 48.1433 60.1122 48.0738L55.5118 44.7611C55.1437 44.5265 54.6998 44.4416 54.271 44.5237C53.8423 44.6058 53.4612 44.8488 53.2058 45.2028C52.9505 45.5569 52.8402 45.9952 52.8976 46.4279C52.955 46.8607 53.1757 47.2551 53.5145 47.5304L58.1183 50.8534L58.146 50.8811C58.5418 51.1823 58.8544 51.5793 59.0542 52.0348C59.2541 52.4902 59.3346 52.989 59.2883 53.4842C59.2397 53.9801 59.0606 54.4543 58.7692 54.8585C58.4779 55.2627 58.0847 55.5826 57.6296 55.7855C57.1745 55.9884 56.6738 56.0672 56.1783 56.0138C55.6829 55.9604 55.2105 55.7768 54.8091 55.4815L52.5695 53.8511L48.2114 50.7081C48.0307 50.5612 47.8219 50.4529 47.5978 50.3896C47.3738 50.3263 47.1392 50.3095 46.9083 50.3401C46.6775 50.3707 46.4554 50.4481 46.2556 50.5676C46.0558 50.6871 45.8824 50.8461 45.7462 51.035C45.61 51.2238 45.5138 51.4384 45.4635 51.6658C45.4132 51.8931 45.4099 52.1283 45.4537 52.357C45.4975 52.5856 45.5875 52.803 45.7183 52.9956C45.849 53.1882 46.0177 53.3522 46.2141 53.4773L50.5722 56.6169C50.7557 56.7514 50.909 56.9229 51.0223 57.1202C51.1355 57.3175 51.2063 57.5364 51.2299 57.7627C51.2656 57.9935 51.249 58.2293 51.1813 58.4528C51.1136 58.6763 50.9965 58.8817 50.8387 59.0538C50.5631 59.3404 50.1972 59.5233 49.8026 59.5719C49.4079 59.6204 49.0086 59.5316 48.6718 59.3204L44.1925 56.7415C44.2576 56.5715 44.3097 56.3967 44.3483 56.2188C44.4087 55.9818 44.455 55.7414 44.4868 55.4988C44.5991 54.3768 44.318 53.2506 43.6916 52.3129C43.0652 51.3752 42.1325 50.6843 41.0529 50.3584C41.2125 49.9444 41.3184 49.5117 41.3679 49.0707C41.4497 48.2226 41.3088 47.3678 40.9591 46.5907C40.6094 45.8137 40.0631 45.1413 39.3741 44.64C38.4408 43.9701 37.2999 43.6536 36.1548 43.7469C35.8607 42.5683 35.1346 41.5431 34.1204 40.8744C33.1062 40.2058 31.8779 39.9424 30.6787 40.1365C29.8241 40.2638 29.0207 40.623 28.356 41.175L28.3179 41.2061C28.007 40.7584 27.6204 40.3684 27.1756 40.0534C26.6621 39.6782 26.0789 39.4093 25.4601 39.2625C24.8413 39.1157 24.1994 39.0939 23.5721 39.1984C23.1389 39.2741 22.7175 39.4068 22.319 39.593C20.9377 36.1683 18.7785 33.1119 16.0121 30.6657L27.5737 14.6145C29.9057 15.9943 32.4681 16.9407 35.1371 17.408L33.6764 31.7976C33.6213 32.311 33.6684 32.8302 33.815 33.3252C33.9615 33.8203 34.2047 34.2814 34.5303 34.6821C34.856 35.0827 35.2577 35.4149 35.7124 35.6595C36.1671 35.9041 36.6657 36.0563 37.1795 36.1073C38.6643 36.2695 40.1634 35.9774 41.4787 35.2696C41.9314 35.0324 42.3593 34.7506 42.756 34.4284C43.5355 33.8095 44.1824 33.04 44.6581 32.1658C45.1339 31.2916 45.4288 30.3306 45.5252 29.3399L45.9129 25.5876C47.6286 25.51 49.3075 25.0637 50.8352 24.2792C51.0499 24.1719 51.261 24.0542 51.4687 23.933L69.5068 37.8588C69.628 37.9557 69.7283 38.0284 69.7768 38.0769L69.801 38.1011C69.8253 38.1253 69.8737 38.1496 69.898 38.198L69.9464 38.2465C69.9707 38.2465 69.9707 38.2707 69.9949 38.295L70.0434 38.3434L70.116 38.4161L70.1887 38.513C70.213 38.5373 70.2372 38.5892 70.2614 38.6134C70.3185 38.6973 70.3672 38.7866 70.4068 38.88L70.431 38.9284C70.4587 38.9769 70.4587 39.0011 70.483 39.0496C70.5072 39.098 70.5072 39.1465 70.5314 39.195C70.5557 39.2434 70.5557 39.2953 70.5799 39.3438L70.6283 39.4892C70.662 39.6024 70.6864 39.7182 70.701 39.8353V39.8838C70.7229 39.9387 70.7313 39.9981 70.7253 40.0569V40.2023C70.7383 40.3332 70.7229 40.4655 70.6803 40.59H70.6976ZM80.4107 29.5857C77.4571 31.2958 74.9116 33.6287 72.951 36.4223V36.4015C72.9026 36.3288 72.8299 36.2561 72.7814 36.1834C72.733 36.1107 72.6118 35.9896 72.5114 35.8926L72.2691 35.6469C72.0848 35.4654 71.8894 35.2955 71.6841 35.138L51.6072 19.6511L50.5687 20.4299C48.8515 21.7352 46.7013 22.3368 44.556 22.1122L42.8495 21.9392L42.1572 28.9765C42.038 30.0709 41.4965 31.0756 40.6479 31.7769C39.7927 32.4677 38.6986 32.7913 37.6052 32.6769C37.5376 32.6722 37.4717 32.6538 37.4114 32.623C37.3511 32.5921 37.2977 32.5493 37.2543 32.4973C37.211 32.4452 37.1786 32.3849 37.1592 32.32C37.1398 32.2551 37.1337 32.1869 37.1414 32.1196L38.3598 20.1634L47.1002 15.9022H47.0275L49.4506 14.7011L49.5995 14.6284C50.1978 14.2714 50.8149 13.9467 51.4479 13.6557C52.7471 13.0525 54.1243 12.6342 55.5395 12.413C57.3045 12.1222 59.1052 12.1222 60.8703 12.413C64.6897 13.0793 68.6149 12.7867 72.2934 11.5615L73.8891 15.1061L80.4107 29.5857ZM84.4261 30.1949L74.4672 8.06184L82.0826 4.65568L92.0415 26.7853L84.4261 30.1949Z" stroke="#77C5D5" mask="url(#path-1-outside-1_3316_9985)"/>
</svg>
