<svg width="144" height="22" viewBox="0 0 144 22" fill="none" xmlns="http://www.w3.org/2000/svg">
<path d="M39.9218 4.59654H37.2311C36.4177 4.59654 35.792 4.84683 35.4165 5.66029L30.2855 17.3615H33.9148C33.9148 17.3615 34.5405 15.7971 34.6656 15.4217C35.0411 15.4217 38.6077 15.4217 39.1083 15.4217C39.2335 15.8597 39.5463 17.2989 39.5463 17.2989H42.8001L39.9218 4.59654ZM35.6668 12.7936C35.9797 12.0427 37.0434 9.22695 37.0434 9.22695C37.0434 9.28953 37.3563 8.47607 37.4814 8.03806L37.7317 9.16438C37.7317 9.16438 38.42 12.2305 38.5452 12.8562H35.6668V12.7936Z" fill="#528CBE"/>
<path d="M30.5357 13.1692C30.5357 15.7973 28.1579 17.5493 24.4661 17.5493C22.9018 17.5493 21.4 17.2365 20.5865 16.861L21.0871 13.9827L21.5251 14.1704C22.6515 14.671 23.4023 14.8587 24.7789 14.8587C25.7801 14.8587 26.8439 14.4833 26.8439 13.6072C26.8439 13.0441 26.4058 12.6686 25.0292 12.0429C23.7152 11.4172 21.9632 10.416 21.9632 8.60138C21.9632 6.09846 24.4035 4.40898 27.845 4.40898C29.1591 4.40898 30.2854 4.65927 30.9737 4.97214L30.4731 7.72536L30.2228 7.47506C29.5971 7.22477 28.7836 6.97448 27.5947 6.97448C26.2807 7.03705 25.655 7.60021 25.655 8.10079C25.655 8.66395 26.4058 9.10196 27.5947 9.66512C29.5971 10.6037 30.5357 11.6675 30.5357 13.1692Z" fill="#528CBE"/>
<path d="M0 4.72197L0.0625731 4.47168H5.44386C6.19474 4.47168 6.75789 4.72197 6.94561 5.53542L8.1345 11.167C6.94561 8.16349 4.1924 5.72314 0 4.72197Z" fill="#F9B50B"/>
<path d="M15.7057 4.59695L10.2619 17.2993H6.57006L3.44141 6.66186C5.69404 8.10104 7.57123 10.3537 8.25953 11.918L8.63497 13.232L12.0139 4.53438H15.7057V4.59695Z" fill="#528CBE"/>
<path d="M17.145 4.53438H20.5865L18.3965 17.2993H14.955L17.145 4.53438Z" fill="#528CBE"/>
<path d="M75.2154 3.09293L66.6162 3.1225L66.8768 18.8654L75.476 18.8358L75.2154 3.09293Z" fill="#FF5F00"/>
<path d="M67.1821 11.0257C67.1289 7.82368 68.5633 4.97859 70.81 3.13313C69.1142 1.80239 66.9881 1.00216 64.6835 1.01006C59.2236 1.02876 54.8808 5.52666 54.9728 11.0675C55.0649 16.6083 59.5567 21.0759 65.0166 21.0572C67.3213 21.0494 69.4205 20.2347 71.0719 18.8925C68.7646 17.0904 67.2354 14.2276 67.1821 11.0257Z" fill="#EB001B"/>
<path d="M87.1191 10.8908C87.2112 16.4317 82.8683 20.9296 77.4085 20.9483C75.1038 20.9562 72.9777 20.1559 71.2819 18.8252C73.556 16.9796 74.963 14.1346 74.9098 10.9327C74.8566 7.73068 73.3278 4.89573 71.02 3.06588C72.6714 1.72366 74.7706 0.908968 77.0753 0.901075C82.5352 0.882376 87.0275 5.37786 87.1191 10.8908Z" fill="#F79E1B"/>
<path d="M139.209 4.53415H130.643C131.142 7.36161 133.887 10.0228 136.88 10.0228H143.7C143.783 9.77328 143.783 9.35747 143.783 9.10799C143.783 6.61317 141.704 4.53415 139.209 4.53415Z" fill="url(#paint0_linear_3538_6290)"/>
<path d="M131.392 10.5219V17.4242H135.55V13.7651H139.209C141.205 13.7651 142.951 12.3514 143.533 10.5219H131.392Z" fill="#4FAD50"/>
<path d="M116.755 4.53415V17.3409H120.414C120.414 17.3409 121.329 17.3409 121.828 16.4261C124.323 11.5197 125.071 10.0228 125.071 10.0228H125.57V17.3409H129.728V4.53415H126.069C126.069 4.53415 125.154 4.61731 124.656 5.44892C122.576 9.69012 121.412 11.8523 121.412 11.8523H120.913V4.53415H116.755Z" fill="#4FAD50"/>
<path d="M99.2917 17.424V4.61725H103.45C103.45 4.61725 104.614 4.61725 105.279 6.44678C106.943 11.2701 107.109 11.9354 107.109 11.9354C107.109 11.9354 107.442 10.7711 108.938 6.44678C109.604 4.61725 110.768 4.61725 110.768 4.61725H114.926V17.424H110.768V10.5217H110.269L107.94 17.424H106.111L103.782 10.5217H103.283V17.424H99.2917Z" fill="#4FAD50"/>
<defs>
<linearGradient id="paint0_linear_3538_6290" x1="130.629" y1="7.31779" x2="143.753" y2="7.31779" gradientUnits="userSpaceOnUse">
<stop stop-color="#27B1E6"/>
<stop offset="1" stop-color="#148ACA"/>
</linearGradient>
</defs>
</svg>
